<svg id="Capa_1" data-name="Capa 1" xmlns="http://www.w3.org/2000/svg" viewBox="0 0 400 400"><defs><style>.cls-1{fill:#f83797;}.cls-2{fill:#83a84d;}.cls-3{fill:#3e2872;}</style></defs><title>logoPin5</title><path class="cls-1" d="M37.63,0H362.37A37.63,37.63,0,0,1,400,37.63V200A200,200,0,0,1,200,400h0A200,200,0,0,1,0,200V37.63A37.63,37.63,0,0,1,37.63,0Z"/><path class="cls-2" d="M159.8,386.71a11,11,0,0,0-1.06-1.3c-8.62-7.86-15.75-17-22.16-26.66a43.4,43.4,0,0,1-7-18.47c-0.89-6.85-2.13-13.67-2.87-20.54-0.57-5.37-1.13-10.78-.34-16.21A24.14,24.14,0,0,1,128,297.6a2.35,2.35,0,0,1,2.85-1.6c4.72,0.66,9.57.77,14.16,1.94,8.88,2.26,17.57,5.12,25.12,10.68,4.44,3.26,9,6.36,13.38,9.71a66.77,66.77,0,0,1,15.16,16.76c5.12,7.83,10,15.82,14.35,24.08,5.18,9.79,8.48,20.14,8.77,31.31,0,0.65,0,1.31,0,2a3.4,3.4,0,0,1-2.71,3.47,10.45,10.45,0,0,1-1.35.36c-6.86.89-13.58,2.77-20.51,3.09-9.17.43-18.12-.42-26.34-5.09a46,46,0,0,1-4.43-2.95,9.76,9.76,0,0,0-3.1-1.87Z" transform="translate(-24.82 -24.61)"/><path class="cls-2" d="M321.77,307.32a7.19,7.19,0,0,1,4.28.59c1.75,1.06,2.3,3.32,2.5,5.35,3,29.54-13.19,49.52-37,62.47-9.88,5.37-20.48,7.19-31.6,7.1-3.57,0-21.18,2.89-23.23,1.12-1.46-1.27-1.22-3.56-.8-5.45C246.82,329.58,273.07,311,321.77,307.32Z" transform="translate(-24.82 -24.61)"/><path class="cls-2" d="M196.8,259.24c5.13,1.84,9.65,5.07,13.76,8.64,8.4,7.28,15.52,16.32,19.23,26.8,4.62,13,4.79,28.66,1.52,42C200.38,328.93,186.62,287.17,196.8,259.24Z" transform="translate(-24.82 -24.61)"/><path class="cls-3" d="M55.62,197.32A29.35,29.35,0,0,1,46,189.06a20.74,20.74,0,0,1,.31-24,25.47,25.47,0,0,1,11-8.06,42.22,42.22,0,0,1,16-2.85,37.78,37.78,0,0,1,15.86,3.16,24.81,24.81,0,0,1,10.71,8.93,23.68,23.68,0,0,1,3.8,13.33H85.35a10.36,10.36,0,0,0-3.18-8q-3.18-3-9.33-3-5.92,0-9.1,2.45a7.54,7.54,0,0,0-3.18,6.23q0,3.61,3.83,6.17t11.83,5q13.81,4.28,20.6,10.65a21.34,21.34,0,0,1,6.79,16.29,20.82,20.82,0,0,1-3.69,12.4,22.84,22.84,0,0,1-10.45,7.89,42.65,42.65,0,0,1-15.89,2.7,45,45,0,0,1-16.43-3,28.6,28.6,0,0,1-12.51-9.19q-4.82-6.2-4.82-15.33H58.13q0,7,3.94,10t11.5,3q5.8,0,8.76-2.37a7.45,7.45,0,0,0,3-6.09,8.85,8.85,0,0,0-1.18-4.73,11.59,11.59,0,0,0-4.48-3.69A62.45,62.45,0,0,0,70,203.32,83.28,83.28,0,0,1,55.62,197.32Z" transform="translate(-24.82 -24.61)"/><path class="cls-3" d="M181.47,170.07H156.62v67.29H138.3V170.07H113.85V155.31h67.62v14.76Z" transform="translate(-24.82 -24.61)"/><path class="cls-3" d="M255.81,219.55a33.08,33.08,0,0,1-12.48,14,37,37,0,0,1-36.83,0,33,33,0,0,1-12.51-14q-4.48-9.13-4.48-21.47v-3.44q0-12.34,4.45-21.5a32.86,32.86,0,0,1,12.45-14.06,37.08,37.08,0,0,1,36.86,0,32.93,32.93,0,0,1,12.54,14.06q4.48,9.16,4.48,21.5v3.44Q260.29,210.42,255.81,219.55Zm-18.46-43.81a14.21,14.21,0,0,0-12.51-6.51q-8.23,0-12.54,6.48T208,194.53v3.55q0,12.29,4.4,18.85A14.23,14.23,0,0,0,225,223.49a14,14,0,0,0,12.43-6.59q4.37-6.59,4.37-18.82v-3.55Q241.75,182.24,237.35,175.73Z" transform="translate(-24.82 -24.61)"/><path class="cls-3" d="M340.58,236.51v0.85H321l-14.82-29.3H293.92v29.3H275.6V155.31H307a42.82,42.82,0,0,1,16.37,2.85,22.71,22.71,0,0,1,10.59,8.4,23.93,23.93,0,0,1,3.69,13.55q0,8.9-3.72,14.43a25.15,25.15,0,0,1-10.76,8.73Zm-46.66-43.22H307q6,0,9.19-3.07t3.16-8.48q0-5.52-3.13-8.59T307,170.07H293.92v23.22Z" transform="translate(-24.82 -24.61)"/><path class="cls-3" d="M372.4,170.07v18h31.78v14.26H372.4v20.29h37.42v14.71H354.08V155.31h55.73v14.76H372.4Z" transform="translate(-24.82 -24.61)"/><path class="cls-3" d="M164.14,137.49H145.82V117.32l1.8-39.73-21.08,59.9H114.27L93.19,77.59,95,117.32v20.17H76.73V55.44h24l19.72,57.82,19.72-57.82h24v82.05Z" transform="translate(-24.82 -24.61)"/><path class="cls-3" d="M197.36,70.2v18h31.78v14.26H197.36v20.29h37.42v14.71H179V55.44h55.73V70.2H197.36Z" transform="translate(-24.82 -24.61)"/><path class="cls-3" d="M291.49,121.65H262.87l-5.13,15.84h-19.5l30.37-82.05h17.08l30.49,82.05h-19.5Zm-4.79-14.76-9.52-29.25-9.47,29.25h19Z" transform="translate(-24.82 -24.61)"/><path class="cls-3" d="M380,70.2H355.14v67.29H336.83V70.2H312.37V55.44H380V70.2Z" transform="translate(-24.82 -24.61)"/></svg>