<svg id="Capa_1" data-name="Capa 1" xmlns="http://www.w3.org/2000/svg" viewBox="0 0 400 400"><defs><style>.cls-1{fill:#3e2872;}.cls-2{fill:#83a84d;}.cls-3{fill:#f83797;}</style></defs><title>logoPin6</title><path class="cls-1" d="M37.63,0H362.37A37.63,37.63,0,0,1,400,37.63V200A200,200,0,0,1,200,400h0A200,200,0,0,1,0,200V37.63A37.63,37.63,0,0,1,37.63,0Z"/><path class="cls-2" d="M159.76,387a11,11,0,0,0-1.06-1.3c-8.62-7.86-15.75-17-22.16-26.66a43.4,43.4,0,0,1-7-18.47c-0.89-6.85-2.13-13.67-2.87-20.54-0.57-5.37-1.13-10.78-.34-16.21a24.14,24.14,0,0,1,1.62-5.93,2.35,2.35,0,0,1,2.85-1.6c4.72,0.66,9.57.77,14.16,1.94,8.88,2.26,17.57,5.12,25.12,10.68,4.44,3.26,9,6.36,13.38,9.71a66.77,66.77,0,0,1,15.16,16.76c5.12,7.83,10,15.82,14.35,24.08,5.18,9.79,8.48,20.14,8.77,31.31,0,0.65,0,1.31,0,2A3.4,3.4,0,0,1,219,396.2a10.45,10.45,0,0,1-1.35.36c-6.86.89-13.58,2.77-20.51,3.09-9.17.43-18.12-.42-26.34-5.09a46,46,0,0,1-4.43-2.95,9.76,9.76,0,0,0-3.1-1.87Z" transform="translate(-24.78 -24.91)"/><path class="cls-2" d="M321.73,307.61a7.19,7.19,0,0,1,4.28.59c1.75,1.06,2.3,3.32,2.5,5.35,3,29.54-13.19,49.52-37,62.47-9.88,5.37-20.48,7.19-31.6,7.1-3.57,0-21.18,2.89-23.23,1.12-1.46-1.27-1.22-3.56-.8-5.45C246.78,329.88,273,311.25,321.73,307.61Z" transform="translate(-24.78 -24.91)"/><path class="cls-2" d="M196.76,259.53c5.13,1.84,9.65,5.07,13.76,8.64,8.4,7.28,15.52,16.32,19.23,26.8,4.62,13,4.79,28.66,1.52,42C200.34,329.23,186.58,287.46,196.76,259.53Z" transform="translate(-24.78 -24.91)"/><path class="cls-3" d="M55.58,197.61a29.35,29.35,0,0,1-9.66-8.26,20.74,20.74,0,0,1,.31-24,25.47,25.47,0,0,1,11-8.06,42.22,42.22,0,0,1,16-2.85,37.78,37.78,0,0,1,15.86,3.16,24.81,24.81,0,0,1,10.71,8.93,23.68,23.68,0,0,1,3.8,13.33H85.31a10.36,10.36,0,0,0-3.18-8q-3.18-3-9.33-3-5.92,0-9.1,2.45a7.54,7.54,0,0,0-3.18,6.23q0,3.61,3.83,6.17t11.83,5Q90,193.13,96.78,199.5a21.34,21.34,0,0,1,6.79,16.29,20.82,20.82,0,0,1-3.69,12.4,22.84,22.84,0,0,1-10.45,7.89,42.65,42.65,0,0,1-15.89,2.7,45,45,0,0,1-16.43-3A28.6,28.6,0,0,1,44.6,226.6q-4.82-6.2-4.82-15.33H58.09q0,7,3.94,10t11.5,3q5.8,0,8.76-2.37a7.45,7.45,0,0,0,3-6.09,8.85,8.85,0,0,0-1.18-4.73,11.59,11.59,0,0,0-4.48-3.69,62.45,62.45,0,0,0-9.66-3.86A83.28,83.28,0,0,1,55.58,197.61Z" transform="translate(-24.78 -24.91)"/><path class="cls-3" d="M181.43,170.36H156.58v67.29H138.26V170.36H113.81V155.6h67.62v14.76Z" transform="translate(-24.78 -24.91)"/><path class="cls-3" d="M255.77,219.84a33.08,33.08,0,0,1-12.48,14,37,37,0,0,1-36.83,0,33,33,0,0,1-12.51-14q-4.48-9.13-4.48-21.47v-3.44q0-12.34,4.45-21.5a32.86,32.86,0,0,1,12.45-14.06,37.08,37.08,0,0,1,36.86,0,32.93,32.93,0,0,1,12.54,14.06q4.48,9.16,4.48,21.5v3.44Q260.25,210.71,255.77,219.84ZM237.32,176a14.21,14.21,0,0,0-12.51-6.51q-8.23,0-12.54,6.48T208,194.82v3.55q0,12.29,4.4,18.85a14.23,14.23,0,0,0,12.57,6.57,14,14,0,0,0,12.43-6.59q4.37-6.59,4.37-18.82v-3.55Q241.71,182.54,237.32,176Z" transform="translate(-24.78 -24.91)"/><path class="cls-3" d="M340.54,236.8v0.85H320.93l-14.82-29.3H293.88v29.3H275.56V155.6H307a42.82,42.82,0,0,1,16.37,2.85,22.71,22.71,0,0,1,10.59,8.4,23.93,23.93,0,0,1,3.69,13.55q0,8.9-3.72,14.43a25.15,25.15,0,0,1-10.76,8.73Zm-46.66-43.22H307q6,0,9.19-3.07t3.16-8.48q0-5.52-3.13-8.59T307,170.36H293.88v23.22Z" transform="translate(-24.78 -24.91)"/><path class="cls-3" d="M372.36,170.36v18h31.78v14.26H372.36v20.29h37.42v14.71H354V155.6h55.73v14.76H372.36Z" transform="translate(-24.78 -24.91)"/><path class="cls-3" d="M164.1,137.78H145.78V117.61l1.8-39.73-21.08,59.9H114.23L93.15,77.88,95,117.61v20.17H76.7V55.73h24l19.72,57.82,19.72-57.82h24v82.05Z" transform="translate(-24.78 -24.91)"/><path class="cls-3" d="M197.32,70.5v18H229.1v14.26H197.32v20.29h37.42v14.71H179V55.73h55.73V70.5H197.32Z" transform="translate(-24.78 -24.91)"/><path class="cls-3" d="M291.46,121.95H262.83l-5.13,15.84H238.2l30.37-82.05h17.08l30.49,82.05h-19.5Zm-4.79-14.76-9.52-29.25-9.47,29.25h19Z" transform="translate(-24.78 -24.91)"/><path class="cls-3" d="M380,70.5H355.11v67.29H336.79V70.5H312.33V55.73H380V70.5Z" transform="translate(-24.78 -24.91)"/></svg>