<svg id="Capa_1" data-name="Capa 1" xmlns="http://www.w3.org/2000/svg" viewBox="0 0 400 400"><defs><style>.cls-1{fill:#f83797;}.cls-2{fill:#83a84d;}.cls-3{fill:#3e2872;}</style></defs><title>logoPin7</title><path class="cls-1" d="M37.63,0H362.37A37.63,37.63,0,0,1,400,37.63V200A200,200,0,0,1,200,400h0A200,200,0,0,1,0,200V37.63A37.63,37.63,0,0,1,37.63,0Z"/><path class="cls-2" d="M159.8,386.71a11,11,0,0,0-1.06-1.3c-8.62-7.86-15.75-17-22.16-26.66a43.4,43.4,0,0,1-7-18.47c-0.89-6.85-2.13-13.67-2.87-20.54-0.57-5.37-1.13-10.78-.34-16.21A24.14,24.14,0,0,1,128,297.6a2.35,2.35,0,0,1,2.85-1.6c4.72,0.66,9.57.77,14.16,1.94,8.88,2.26,17.57,5.12,25.12,10.68,4.44,3.26,9,6.36,13.38,9.71a66.77,66.77,0,0,1,15.16,16.76c5.12,7.83,10,15.82,14.35,24.08,5.18,9.79,8.48,20.14,8.77,31.31,0,0.65,0,1.31,0,2a3.4,3.4,0,0,1-2.71,3.47,10.45,10.45,0,0,1-1.35.36c-6.86.89-13.58,2.77-20.51,3.09-9.17.43-18.12-.42-26.34-5.09a46,46,0,0,1-4.43-2.95,9.76,9.76,0,0,0-3.1-1.87Z" transform="translate(-24.82 -24.61)"/><path class="cls-2" d="M321.77,307.32a7.19,7.19,0,0,1,4.28.59c1.75,1.06,2.3,3.32,2.5,5.35,3,29.54-13.19,49.52-37,62.47-9.88,5.37-20.48,7.19-31.6,7.1-3.57,0-21.18,2.89-23.23,1.12-1.46-1.27-1.22-3.56-.8-5.45C246.82,329.58,273.07,311,321.77,307.32Z" transform="translate(-24.82 -24.61)"/><path class="cls-2" d="M196.8,259.24c5.13,1.84,9.65,5.07,13.76,8.64,8.4,7.28,15.52,16.32,19.23,26.8,4.62,13,4.79,28.66,1.52,42C200.38,328.93,186.62,287.17,196.8,259.24Z" transform="translate(-24.82 -24.61)"/><path class="cls-3" d="M116,239.15L67.92,122.71V239.15H39.55V55.27H67.92L116,171.84V55.27h28.29V239.15H116Z" transform="translate(-24.82 -24.61)"/><path class="cls-3" d="M195.7,88.36v40.41h49.24v32H195.7v45.46h58v33H167.32V55.27h86.35V88.36h-58Z" transform="translate(-24.82 -24.61)"/><path class="cls-3" d="M412.18,55.27L384.59,239.15h-28.9L336.74,122.83,318,239.15h-28.9L261.4,55.27h28.11l16,125.41,19.3-125.41h24l19.38,125.41,16-125.41h28Z" transform="translate(-24.82 -24.61)"/></svg>